<?xml version="1.0" encoding="UTF-8"?>
<!DOCTYPE svg PUBLIC "-//W3C//DTD SVG 1.1//EN" "http://www.w3.org/Graphics/SVG/1.1/DTD/svg11.dtd">
<!-- Creator: CorelDRAW -->
<svg xmlns="http://www.w3.org/2000/svg" xml:space="preserve" width="25.4mm" height="25.4mm" version="1.1" style="shape-rendering:geometricPrecision; text-rendering:geometricPrecision; image-rendering:optimizeQuality; fill-rule:evenodd; clip-rule:evenodd"
viewBox="0 0 2540 2540"
 xmlns:xlink="http://www.w3.org/1999/xlink"
 xmlns:xodm="http://www.corel.com/coreldraw/odm/2003">
 <defs>
  <style type="text/css">
   <![CDATA[
    .str2 {stroke:#320556;stroke-width:8.47;stroke-miterlimit:22.9256}
    .str1 {stroke:#DF678D;stroke-width:16.93;stroke-miterlimit:22.9256}
    .str0 {stroke:black;stroke-width:8.47;stroke-linecap:round;stroke-linejoin:round;stroke-miterlimit:22.9256}
    .fil0 {fill:none}
    .fil4 {fill:none;fill-rule:nonzero}
    .fil2 {fill:#320556}
    .fil1 {fill:#DF678D}
    .fil3 {fill:#320556;fill-rule:nonzero}
   ]]>
  </style>
 </defs>
 <g id="Слой_x0020_1">
  <metadata id="CorelCorpID_0Corel-Layer"/>
  <g id="_1783940415120">
   <g>
    <path class="fil0 str0" d="M476.25 1937.43c30.3,-22.72 44.69,-32.67 85.29,-28.7 19.57,1.92 32.23,11.13 31.46,33.81 -1.41,42.63 -36.08,37.15 -70.93,37.47 -37.84,0.36 -49.22,4.13 -61.75,33.66 -21.67,50.96 -27.62,114.56 -43.7,170.8"/>
    <path class="fil0 str0" d="M609.06 2002.16l29 -75.7 48.32 59.59 3.58 -42.36c1.49,-17.41 1.92,-15.92 10.92,-30.92"/>
    <path class="fil0 str0" d="M717.37 1836.73c21.66,-16.41 69.08,-41.71 92.7,-15.37 7.18,7.99 3.16,21.59 -11.2,39.85 -13.8,17.57 -30.17,32.03 -47.83,45.02 -54.28,39.87 -26.06,36.96 23.52,58.57 28.31,14.55 38.95,27.36 36.31,40.4 -5.88,29.09 -47.11,42.94 -73.21,42.46 -14.95,-0.27 -24.28,-4.97 -50.9,-16.8"/>
    <path class="fil0 str0" d="M797.18 1915.46c32.88,-6.99 40.54,-7.47 55.15,4.58 25.5,21.03 29,34.19 29.25,68.27 0.38,47.8 -44.12,74.77 -50.03,42.01 -7.77,-43.4 21.65,-80.38 43.38,-114.86 16.35,-21.2 17.11,-31.79 42.72,-37.12"/>
    <path class="fil0 str0" d="M1125.34 1847.9c-47.65,-15.53 -72.21,6.67 -89.28,49.8 -8.53,21.61 -15.71,44.48 -15.02,67.75 0.88,29.21 -17.59,42.46 -27.51,28.19 -21.1,-30.42 4.19,-45.21 29.17,-51.99"/>
    <path class="fil0 str0" d="M1039.08 1995.55l27.29 -15.8c21.29,-12.34 43.46,-34.6 47.08,-59.88 3.54,-24.57 -20.67,-24.56 -45.87,-3.5 -52.84,44.17 -3.17,130.69 92.05,86.76"/>
    <path class="fil0 str0" d="M1228.02 1965.21c9.09,-7.88 17.42,-12.53 22.11,4.99 2.96,10.94 -9.43,20.85 -21.42,35.65"/>
    <path class="fil0 str0" d="M1212.66 1912.2c20.94,0 57.12,1.6 66.1,24.8 6.62,17.16 2.92,37.43 -8.24,50.97"/>
    <path class="fil0 str0" d="M1314.29 1932.06c27.65,-0.68 51.79,1.01 62.29,22.6 15.35,31.58 -7.53,28.22 -28.27,22.6 -25.85,-6.99 -34.77,-2.78 -51.93,30.6"/>
    <line class="fil0 str0" x1="1427.04" y1="1870.12" x2="1400.77" y2= "2014.18" />
    <path class="fil0 str0" d="M1562.24 1889.19c-43.86,-16.45 -97.48,-15.95 -117.37,34.84 -7.2,18.32 -4.63,33.27 7.45,48.79 11.86,15.23 26.38,29.02 46.75,28.33 12.29,-0.44 16.43,-8.91 16.43,-30.46"/>
    <path class="fil0 str0" d="M1545.54 1964.84c14.46,-10.7 22.92,-5.72 22.8,5.52 -0.15,14.07 -12.38,22.89 -21.61,32.71"/>
    <path class="fil0 str0" d="M1523.48 1915.59c57.05,3.1 90.04,12.33 64.62,79.6"/>
    <path class="fil0 str0" d="M1721.97 1957.92c21.19,15.88 11.26,34.77 -8.95,45.94"/>
    <path class="fil0 str0" d="M1693.92 1913.61c53.74,4.25 75.21,15.25 63.42,73.18"/>
    <path class="fil0 str0" d="M1819.95 2010.67c-17.74,-0.68 -27.45,-4.66 -32.45,-13.79 -12.46,-22.69 -6.3,-54.43 16.76,-69.29 13.3,-8.6 26.65,-8.79 38.13,-1.7 38.24,23.52 31.29,86.78 -22.44,84.78z"/>
    <path class="fil0 str0" d="M1895.32 1918.11c32.42,-6.01 48.11,-2.73 45.15,34.35 -2.08,25.65 -11.17,39.5 -35.25,56.16"/>
    <path class="fil0 str0" d="M1989.18 1902.05c-1.08,72.12 55.14,74.2 51.27,44.57 -3.98,-30.14 -52.99,-5.38 -65.43,13.87 -14.3,22.1 -15.21,31.36 -18.25,63.56"/>
    <path class="fil0 str0" d="M2079.15 1960.76c27.89,9.28 5.53,31.78 -8.38,41.94"/>
    <path class="fil0 str0" d="M2056.66 1912.34c53.49,2.6 81.17,13.56 59.09,69.39"/>
   </g>
   <g>
    <path class="fil0 str1" d="M873.62 693.07c-41.59,-107.59 -46.88,-157.46 -0.29,-237.27 60.74,-104.02 190.8,-124.15 291.82,-73.97 53.67,26.64 82.92,74 106.38,127.94 30.25,-68.98 52.95,-101.72 99.59,-125.41 91.36,-46.46 227.73,-38.65 287.02,54.56 53.72,84.49 42.14,171.69 2.38,258.62"/>
    <path class="fil1" d="M1587.86 761.46c30.31,-56.61 10.37,-61.04 -43.83,-59.04l-4.47 17 14.3 8.27 -7.8 14.04 6.24 15.1c-4.98,31.95 -25.08,57.56 -40.84,86.68 -25.9,47.85 -52.59,92.58 -80.75,137.04 -14.14,22.31 -63.08,113.98 -85.78,113.98l-33.04 0 -3.48 -25.86c-3.05,-22.57 2.33,-14.41 16.92,-30.95 9.25,-10.46 8.02,-15.75 21.86,-28.76 30.21,-1.64 22.32,-0.95 4.7,-28.27 -23,-35.77 -12.05,-50.63 -24.38,-71.41 -4.58,-7.72 -11.32,-19.69 -35.97,-34.97l-19.15 -13.16c-10.21,-24.56 -7.34,-37.33 -32.08,-40.68 -15.39,-2.11 -15.47,-1.99 -20.59,20.33l-10.95 6.68c-15.07,9.21 -19.26,14.17 -31.54,26.83 20.19,9.1 15.33,9.13 36.83,4.13l7.46 -1.73c-29.01,33.82 -31.22,43.57 -27.52,87.97 -12.52,32.94 -3.31,43.65 22.13,61.04 13.37,20.08 14.4,16.25 14.07,40.19l-0.35 26.22c-35.52,5.92 -33.86,8.09 -58.1,-25.48 -18.81,-26.04 -38.59,-61.44 -46.35,-73.09 -48.74,-73.14 -95.89,-145.01 -139.66,-227.57l7.77 -23.93 -6.58 -14.36c3.39,-5.39 6.78,-10.78 10.17,-16.16 -12.79,-13.73 -29.29,-15.24 -45.25,-5.86 -21.45,12.69 -14.04,31.7 -2.61,59.12l13.16 25.13c28.05,70.3 41.2,99.79 83.18,162.78 31.23,103.64 45.53,122.85 108.92,206.45l5.98 41.9 213.65 0c48.48,-83.01 80.13,-110.32 101.74,-207.06 25.32,-64.5 99.52,-126.98 92.75,-197.49l19.24 -35.05z"/>
    <rect class="fil2" x="599.99" y="720.36" width="1340" height="14.73"/>
    <rect class="fil2" x="760.42" y="605.53" width="52.88" height="251.15"/>
    <rect class="fil2" x="695.11" y="627.56" width="52.88" height="207.12"/>
    <rect class="fil2" x="625.14" y="645.22" width="52.88" height="171.8"/>
    <rect class="fil2" x="1730.9" y="605.54" width="52.88" height="251.15"/>
    <rect class="fil2" x="1796.21" y="627.57" width="52.88" height="207.12"/>
    <rect class="fil2" x="1866.18" y="645.23" width="52.88" height="171.8"/>
   </g>
   <path class="fil3" d="M80.14 1711.47c48.23,0 78.43,-35.13 78.43,-89.47l0 -9.88c0,-25.8 -7.13,-48.85 -13.84,-62.58 -3.35,-7.13 -8.81,-14.82 -16.78,-23.05 -7.55,-8.78 -13.42,-14.82 -17.19,-18.11l-20.14 -17.02 -20.54 -17.01c-4.62,-4.39 -9.65,-10.43 -15.94,-17.57 -12.17,-15.37 -17.62,-31.83 -17.62,-52.14l0 -3.85c0,-31.28 18.88,-49.94 45.3,-49.94 31.03,0 46.97,25.24 48.23,75.19l29.78 -2.74c-2.09,-76.85 -33.55,-109.23 -77.59,-109.23 -45.72,0 -76.33,33.48 -76.33,83.43l0 9.33c0,28.55 7.12,52.7 22.22,73.01 7.97,9.88 14.68,17.56 20.14,23.6l23.9 21.4 20.55 18.67c4.62,3.84 10.49,10.43 16.78,18.66 13.42,15.92 18.45,33.48 18.45,55.44l0 4.39c0,32.38 -18.45,52.69 -48.65,52.69 -31.03,0 -47.39,-28.54 -49.49,-85.63l-29.78 2.75c2.1,79.59 28.52,119.66 80.11,119.66z"/>
   <polygon id="_1" class="fil3" points="330.52,1320.66 330.52,1495.2 234.48,1495.2 234.48,1320.66 203.87,1320.66 203.87,1704.88 234.48,1704.88 234.48,1532.53 330.52,1532.53 330.52,1704.88 361.14,1704.88 361.14,1320.66 "/>
   <path id="_2" class="fil3" d="M552.81 1704.88l31.88 0 -74.65 -386.42 -37.33 0 -74.66 386.42 31.88 0 14.26 -77.94 93.95 0 14.67 77.94zm-101.91 -114.72l39.84 -216.26 0.43 0 40.26 216.26 -80.53 0z"/>
   <path id="_3" class="fil3" d="M786.01 1704.88l-53.27 -153.14c31.46,-13.17 49.07,-45.56 49.07,-92.21l0 -39.52c0,-65.32 -32.71,-99.35 -87.65,-99.35l-72.98 0 0 384.22 30.62 0 0 -145.46 43.19 0 6.3 0 50.32 145.46 34.4 0zm-93.11 -182.78l-41.1 0 0 -164.67 41.1 0c38.59,0 58.3,19.76 58.3,66.42l0 32.93c0,43.36 -19.29,65.32 -58.3,65.32z"/>
   <path id="_4" class="fil3" d="M820.82 1600.04c0,34.03 7.97,60.93 23.91,81.24 15.94,20.31 36.07,30.19 60.4,30.19 24.32,0 44.45,-9.88 60.39,-30.19 15.94,-20.31 23.91,-47.21 23.91,-81.24l0 -175.09c0,-34.04 -7.97,-60.93 -23.91,-80.69 -15.94,-20.31 -36.07,-30.19 -60.39,-30.19 -24.33,0 -44.46,9.88 -60.4,30.19 -15.94,19.76 -23.91,46.65 -23.91,80.69l0 175.09zm84.31 74.65c-30.62,0 -53.69,-29.64 -53.69,-76.29l0 -171.81c0,-46.65 22.23,-75.74 53.69,-75.74 31.45,0 53.68,29.09 53.68,75.74l0 171.81c0,46.65 -22.23,76.29 -53.68,76.29z"/>
   <polygon id="_5" class="fil3" points="1037.24,1704.88 1067.44,1704.88 1067.44,1420.55 1067.86,1420.55 1171.87,1704.88 1201.24,1704.88 1201.24,1320.66 1171.45,1320.66 1171.45,1608.28 1171.04,1608.28 1066.6,1320.66 1037.24,1320.66 "/>
   <polygon id="_6" class="fil3" points="1476.79,1357.43 1476.79,1320.66 1328.32,1320.66 1328.32,1704.88 1358.93,1704.88 1358.93,1533.08 1470.07,1533.08 1470.07,1495.75 1358.93,1495.75 1358.93,1357.43 "/>
   <polygon id="_7" class="fil3" points="1522.08,1704.88 1552.7,1704.88 1552.7,1320.66 1522.08,1320.66 "/>
   <polygon id="_8" class="fil3" points="1750.66,1320.66 1593.38,1320.66 1593.38,1357.43 1656.71,1357.43 1656.71,1704.88 1687.33,1704.88 1687.33,1357.43 1750.66,1357.43 "/>
   <polygon id="_9" class="fil3" points="1788.83,1704.88 1819.02,1704.88 1819.02,1420.55 1819.44,1420.55 1923.46,1704.88 1952.82,1704.88 1952.82,1320.66 1923.04,1320.66 1923.04,1608.28 1922.62,1608.28 1818.18,1320.66 1788.83,1320.66 "/>
   <polygon id="_10" class="fil3" points="2036.71,1668.1 2036.71,1532.53 2149.11,1532.53 2149.11,1495.75 2036.71,1495.75 2036.71,1357.43 2154.56,1357.43 2154.56,1320.66 2006.09,1320.66 2006.09,1704.88 2154.98,1704.88 2154.98,1668.1 "/>
   <path id="_11" class="fil3" d="M2265.28 1711.47c48.23,0 78.43,-35.13 78.43,-89.47l0 -9.88c0,-25.8 -7.13,-48.85 -13.84,-62.58 -3.35,-7.13 -8.81,-14.82 -16.78,-23.05 -7.55,-8.78 -13.41,-14.82 -17.19,-18.11l-20.13 -17.02 -20.55 -17.01c-4.62,-4.39 -9.65,-10.43 -15.94,-17.57 -12.16,-15.37 -17.61,-31.83 -17.61,-52.14l0 -3.85c0,-31.28 18.87,-49.94 45.29,-49.94 31.03,0 46.97,25.24 48.24,75.19l29.77 -2.74c-2.09,-76.85 -33.55,-109.23 -77.59,-109.23 -45.71,0 -76.33,33.48 -76.33,83.43l0 9.33c0,28.55 7.13,52.7 22.23,73.01 7.97,9.88 14.68,17.56 20.13,23.6l23.9 21.4 20.56 18.67c4.61,3.84 10.48,10.43 16.77,18.66 13.43,15.92 18.45,33.48 18.45,55.44l0 4.39c0,32.38 -18.45,52.69 -48.65,52.69 -31.03,0 -47.39,-28.54 -49.49,-85.63l-29.78 2.75c2.1,79.59 28.53,119.66 80.11,119.66z"/>
   <path id="_12" class="fil3" d="M2460.31 1711.47c48.23,0 78.43,-35.13 78.43,-89.47l0 -9.88c0,-25.8 -7.13,-48.85 -13.84,-62.58 -3.36,-7.13 -8.81,-14.82 -16.78,-23.05 -7.55,-8.78 -13.42,-14.82 -17.19,-18.11l-20.14 -17.02 -20.54 -17.01c-4.62,-4.39 -9.66,-10.43 -15.94,-17.57 -12.17,-15.37 -17.62,-31.83 -17.62,-52.14l0 -3.85c0,-31.28 18.88,-49.94 45.3,-49.94 31.03,0 46.97,25.24 48.23,75.19l29.78 -2.74c-2.1,-76.85 -33.55,-109.23 -77.59,-109.23 -45.72,0 -76.34,33.48 -76.34,83.43l0 9.33c0,28.55 7.13,52.7 22.23,73.01 7.97,9.88 14.68,17.56 20.14,23.6l23.9 21.4 20.55 18.67c4.62,3.84 10.49,10.43 16.78,18.66 13.42,15.92 18.45,33.48 18.45,55.44l0 4.39c0,32.38 -18.45,52.69 -48.65,52.69 -31.03,0 -47.39,-28.54 -49.49,-85.63l-29.78 2.75c2.1,79.59 28.52,119.66 80.11,119.66z"/>
   <path id="_13" class="fil4 str2" d="M80.14 1711.47c48.23,0 78.43,-35.13 78.43,-89.47l0 -9.88c0,-25.8 -7.13,-48.85 -13.84,-62.58 -3.35,-7.13 -8.81,-14.82 -16.78,-23.05 -7.55,-8.78 -13.42,-14.82 -17.19,-18.11l-20.14 -17.02 -20.54 -17.01c-4.62,-4.39 -9.65,-10.43 -15.94,-17.57 -12.17,-15.37 -17.62,-31.83 -17.62,-52.14l0 -3.85c0,-31.28 18.88,-49.94 45.3,-49.94 31.03,0 46.97,25.24 48.23,75.19l29.78 -2.74c-2.09,-76.85 -33.55,-109.23 -77.59,-109.23 -45.72,0 -76.33,33.48 -76.33,83.43l0 9.33c0,28.55 7.12,52.7 22.22,73.01 7.97,9.88 14.68,17.56 20.14,23.6l23.9 21.4 20.55 18.67c4.62,3.84 10.49,10.43 16.78,18.66 13.42,15.92 18.45,33.48 18.45,55.44l0 4.39c0,32.38 -18.45,52.69 -48.65,52.69 -31.03,0 -47.39,-28.54 -49.49,-85.63l-29.78 2.75c2.1,79.59 28.52,119.66 80.11,119.66z"/>
   <polygon id="_14" class="fil4 str2" points="330.52,1320.66 330.52,1495.2 234.48,1495.2 234.48,1320.66 203.87,1320.66 203.87,1704.88 234.48,1704.88 234.48,1532.53 330.52,1532.53 330.52,1704.88 361.14,1704.88 361.14,1320.66 "/>
   <path id="_15" class="fil4 str2" d="M552.81 1704.88l31.88 0 -74.65 -386.42 -37.33 0 -74.66 386.42 31.88 0 14.26 -77.94 93.95 0 14.67 77.94zm-101.91 -114.72l39.84 -216.26 0.43 0 40.26 216.26 -80.53 0z"/>
   <path id="_16" class="fil4 str2" d="M786.01 1704.88l-53.27 -153.14c31.46,-13.17 49.07,-45.56 49.07,-92.21l0 -39.52c0,-65.32 -32.71,-99.35 -87.65,-99.35l-72.98 0 0 384.22 30.62 0 0 -145.46 43.19 0 6.3 0 50.32 145.46 34.4 0zm-93.11 -182.78l-41.1 0 0 -164.67 41.1 0c38.59,0 58.3,19.76 58.3,66.42l0 32.93c0,43.36 -19.29,65.32 -58.3,65.32z"/>
   <path id="_17" class="fil4 str2" d="M820.82 1600.04c0,34.03 7.97,60.93 23.91,81.24 15.94,20.31 36.07,30.19 60.4,30.19 24.32,0 44.45,-9.88 60.39,-30.19 15.94,-20.31 23.91,-47.21 23.91,-81.24l0 -175.09c0,-34.04 -7.97,-60.93 -23.91,-80.69 -15.94,-20.31 -36.07,-30.19 -60.39,-30.19 -24.33,0 -44.46,9.88 -60.4,30.19 -15.94,19.76 -23.91,46.65 -23.91,80.69l0 175.09zm84.31 74.65c-30.62,0 -53.69,-29.64 -53.69,-76.29l0 -171.81c0,-46.65 22.23,-75.74 53.69,-75.74 31.45,0 53.68,29.09 53.68,75.74l0 171.81c0,46.65 -22.23,76.29 -53.68,76.29z"/>
   <polygon id="_18" class="fil4 str2" points="1037.24,1704.88 1067.44,1704.88 1067.44,1420.55 1067.86,1420.55 1171.87,1704.88 1201.24,1704.88 1201.24,1320.66 1171.45,1320.66 1171.45,1608.28 1171.04,1608.28 1066.6,1320.66 1037.24,1320.66 "/>
   <polygon id="_19" class="fil4 str2" points="1476.79,1357.43 1476.79,1320.66 1328.32,1320.66 1328.32,1704.88 1358.93,1704.88 1358.93,1533.08 1470.07,1533.08 1470.07,1495.75 1358.93,1495.75 1358.93,1357.43 "/>
   <polygon id="_20" class="fil4 str2" points="1522.08,1704.88 1552.7,1704.88 1552.7,1320.66 1522.08,1320.66 "/>
   <polygon id="_21" class="fil4 str2" points="1750.66,1320.66 1593.38,1320.66 1593.38,1357.43 1656.71,1357.43 1656.71,1704.88 1687.33,1704.88 1687.33,1357.43 1750.66,1357.43 "/>
   <polygon id="_22" class="fil4 str2" points="1788.83,1704.88 1819.02,1704.88 1819.02,1420.55 1819.44,1420.55 1923.46,1704.88 1952.82,1704.88 1952.82,1320.66 1923.04,1320.66 1923.04,1608.28 1922.62,1608.28 1818.18,1320.66 1788.83,1320.66 "/>
   <polygon id="_23" class="fil4 str2" points="2036.71,1668.1 2036.71,1532.53 2149.11,1532.53 2149.11,1495.75 2036.71,1495.75 2036.71,1357.43 2154.56,1357.43 2154.56,1320.66 2006.09,1320.66 2006.09,1704.88 2154.98,1704.88 2154.98,1668.1 "/>
   <path id="_24" class="fil4 str2" d="M2265.28 1711.47c48.23,0 78.43,-35.13 78.43,-89.47l0 -9.88c0,-25.8 -7.13,-48.85 -13.84,-62.58 -3.35,-7.13 -8.81,-14.82 -16.78,-23.05 -7.55,-8.78 -13.41,-14.82 -17.19,-18.11l-20.13 -17.02 -20.55 -17.01c-4.62,-4.39 -9.65,-10.43 -15.94,-17.57 -12.16,-15.37 -17.61,-31.83 -17.61,-52.14l0 -3.85c0,-31.28 18.87,-49.94 45.29,-49.94 31.03,0 46.97,25.24 48.24,75.19l29.77 -2.74c-2.09,-76.85 -33.55,-109.23 -77.59,-109.23 -45.71,0 -76.33,33.48 -76.33,83.43l0 9.33c0,28.55 7.13,52.7 22.23,73.01 7.97,9.88 14.68,17.56 20.13,23.6l23.9 21.4 20.56 18.67c4.61,3.84 10.48,10.43 16.77,18.66 13.43,15.92 18.45,33.48 18.45,55.44l0 4.39c0,32.38 -18.45,52.69 -48.65,52.69 -31.03,0 -47.39,-28.54 -49.49,-85.63l-29.78 2.75c2.1,79.59 28.53,119.66 80.11,119.66z"/>
   <path id="_25" class="fil4 str2" d="M2460.31 1711.47c48.23,0 78.43,-35.13 78.43,-89.47l0 -9.88c0,-25.8 -7.13,-48.85 -13.84,-62.58 -3.36,-7.13 -8.81,-14.82 -16.78,-23.05 -7.55,-8.78 -13.42,-14.82 -17.19,-18.11l-20.14 -17.02 -20.54 -17.01c-4.62,-4.39 -9.66,-10.43 -15.94,-17.57 -12.17,-15.37 -17.62,-31.83 -17.62,-52.14l0 -3.85c0,-31.28 18.88,-49.94 45.3,-49.94 31.03,0 46.97,25.24 48.23,75.19l29.78 -2.74c-2.1,-76.85 -33.55,-109.23 -77.59,-109.23 -45.72,0 -76.34,33.48 -76.34,83.43l0 9.33c0,28.55 7.13,52.7 22.23,73.01 7.97,9.88 14.68,17.56 20.14,23.6l23.9 21.4 20.55 18.67c4.62,3.84 10.49,10.43 16.78,18.66 13.42,15.92 18.45,33.48 18.45,55.44l0 4.39c0,32.38 -18.45,52.69 -48.65,52.69 -31.03,0 -47.39,-28.54 -49.49,-85.63l-29.78 2.75c2.1,79.59 28.52,119.66 80.11,119.66z"/>
  </g>
 </g>
</svg>
